<svg width="320" height="265" viewBox="0 0 320 265" fill="none" xmlns="http://www.w3.org/2000/svg">
<path d="M263 132.454C263 132.402 262.895 129.607 262.713 124.27C262.66 121.571 262.538 118.244 261.867 114.348C261.31 110.444 260.883 105.893 259.48 100.95C257.467 90.8794 252.945 78.9747 245.871 66.1791C238.691 53.4534 228.184 40.0464 213.651 28.5085C199.188 16.9968 180.682 7.38046 159.239 2.6902C137.762 -1.49348 113.593 -1.28385 90.0511 6.80401C66.5963 14.6386 44.0389 29.8798 27.5456 51.4707C19.1377 62.109 12.394 74.4067 7.75884 87.6652C3.17591 100.714 0.00445786 115.379 0.0131707 129.458C-0.178511 144.036 1.72086 158.246 5.78973 171.793C10.1026 185.226 16.3845 197.76 24.1737 208.957C39.9613 231.238 61.935 247.737 85.3985 256.436C97.0039 261.17 109.219 263.266 121.008 264.55C126.793 264.725 132.683 265.345 138.433 264.742C141.3 264.55 144.158 264.472 146.963 264.192C149.751 263.738 152.531 263.292 155.266 262.856C177.275 259.187 196.33 249.571 211.307 238.19C226.363 226.731 237.341 213.246 244.895 200.345C252.449 187.418 257.006 175.164 259.236 164.876C260.665 159.792 261.249 155.154 261.763 151.137C262.451 147.145 262.669 143.721 262.669 140.935C262.895 135.415 263 132.507 263 132.454V132.472C263 132.472 263 132.463 263 132.454V132.445V132.454ZM262.486 141.031C262.425 143.861 262.085 147.329 261.318 151.338C260.743 155.381 259.977 160.019 258.435 165.12C255.899 175.4 251.124 187.628 243.187 200.345C235.302 213.036 224.002 226.181 208.789 237.168C193.707 248.226 174.53 256.908 152.827 260C141.971 261.93 130.783 261.712 118.995 260.786C107.616 259.24 95.8538 256.637 84.5534 251.929C73.3574 247.091 62.3096 240.994 52.4293 232.863C42.6013 224.722 33.6881 215.115 26.2125 204.179C11.7319 182.117 3.26303 154.718 4.8052 126.794C5.6242 98.7751 16.5849 72.4677 32.7035 52.0035C40.9546 41.8631 50.4167 33.0765 60.6978 25.8708C71.1705 18.962 82.2096 13.4595 93.5711 9.69504C116.268 2.51553 139.958 1.79931 160.494 6.27122C181.239 10.8392 199.231 20.0625 213.363 31.1986C227.565 42.3435 237.916 55.3312 245.069 67.6901C252.065 80.1451 256.762 91.7004 258.888 101.553C260.377 106.374 260.804 110.846 261.484 114.663C262.233 118.479 262.39 121.755 262.512 124.401C262.826 129.651 263 132.411 263 132.445C263 132.498 262.817 135.441 262.486 141.031Z" fill="white"/>
<path d="M63.6871 154H69.1871C70.1871 154 70.7371 153.4 70.9871 152.8L72.7871 148.8H86.3871L88.1871 152.75C88.6371 153.7 89.0371 154 89.9371 154H95.4871C96.2371 154 96.6371 153.35 96.3371 152.7L80.6871 119.05C80.5371 118.75 80.1871 118.5 79.8371 118.5H79.3371C78.9871 118.5 78.6371 118.75 78.4871 119.05L62.8371 152.7C62.5371 153.35 62.9371 154 63.6871 154ZM75.7871 142L79.5371 133.75H79.5871L83.3871 142H75.7871ZM100.443 153.05C100.443 153.55 100.843 154 101.393 154H113.793C119.743 154 124.693 149.95 124.693 144.35C124.693 139.75 120.643 137.3 117.993 136.2C120.343 134.95 123.793 132.15 123.793 128.3C123.793 123.05 118.943 119 113.043 119H101.393C100.843 119 100.443 119.45 100.443 119.95V153.05ZM108.243 133.2V126.2H112.143C114.043 126.2 115.643 127.6 115.643 129.6C115.643 131.6 114.043 133.2 112.143 133.2H108.243ZM108.243 146.85V139.7H112.293C114.243 139.7 116.393 141.2 116.393 143.2C116.393 145.25 114.743 146.85 112.793 146.85H108.243ZM128.508 136.55C128.508 146.55 136.458 154.5 146.458 154.5C156.458 154.5 164.458 146.55 164.458 136.55C164.458 126.55 156.458 118.5 146.458 118.5C136.458 118.5 128.508 126.55 128.508 136.55ZM136.508 136.55C136.508 131.05 141.008 126.5 146.458 126.5C151.958 126.5 156.458 131.05 156.458 136.55C156.458 142 151.958 146.5 146.458 146.5C141.008 146.5 136.508 142 136.508 136.55ZM170.011 140.6C170.011 148.2 176.361 154.5 184.211 154.5C192.111 154.5 198.511 148.2 198.511 140.6V119.95C198.511 119.45 198.061 119 197.561 119H191.411C190.861 119 190.461 119.45 190.461 119.95V140.2C190.461 143.7 187.811 146.5 184.211 146.5C180.661 146.5 178.061 143.7 178.061 140.2V119.95C178.061 119.45 177.661 119 177.111 119H170.961C170.461 119 170.011 119.45 170.011 119.95V140.6ZM211.046 153.05C211.046 153.55 211.496 154 211.996 154H217.996C218.496 154 218.946 153.55 218.946 153.05V126.35H226.096C226.646 126.35 227.046 125.9 227.046 125.4V119.95C227.046 119.45 226.646 119 226.096 119H203.896C203.346 119 202.946 119.45 202.946 119.95V125.4C202.946 125.9 203.346 126.35 203.896 126.35H211.046V153.05ZM240.87 152.9C240.77 153.55 241.22 154 241.82 154H247.72C248.22 154 248.62 153.6 248.67 153.2L250.87 137.75H250.97L259.42 153.95C259.57 154.25 259.97 154.5 260.27 154.5H261.17C261.42 154.5 261.87 154.25 262.02 153.95L270.42 137.75H270.52L272.77 153.2C272.82 153.6 273.27 154 273.72 154H279.62C280.22 154 280.67 153.55 280.57 152.9L274.92 119.3C274.87 118.85 274.42 118.5 274.02 118.5H273.22C272.97 118.5 272.52 118.7 272.37 119L260.77 140.6H260.67L249.07 119C248.92 118.7 248.47 118.5 248.22 118.5H247.42C247.02 118.5 246.57 118.85 246.52 119.3L240.87 152.9ZM286.966 153.05C286.966 153.55 287.366 154 287.916 154H308.616C309.166 154 309.566 153.55 309.566 153.05V147.6C309.566 147.1 309.166 146.65 308.616 146.65H294.766V139.9H306.166C306.666 139.9 307.116 139.5 307.116 138.95V133.5C307.116 133 306.666 132.55 306.166 132.55H294.766V126.35H308.616C309.166 126.35 309.566 125.9 309.566 125.4V119.95C309.566 119.45 309.166 119 308.616 119H287.916C287.366 119 286.966 119.45 286.966 119.95V153.05Z" fill="#EC6C6D"/>
</svg>
