<svg width="262" height="253" viewBox="0 0 262 253" fill="none" xmlns="http://www.w3.org/2000/svg">
<ellipse cx="131" cy="126.5" rx="129" ry="126.5" fill="#EC6C6D"/>
<path d="M19.5684 144H24.5184C25.4184 144 25.9134 143.46 26.1384 142.92L27.7584 139.32H39.9984L41.6184 142.875C42.0234 143.73 42.3834 144 43.1934 144H48.1884C48.8634 144 49.2234 143.415 48.9534 142.83L34.8684 112.545C34.7334 112.275 34.4184 112.05 34.1034 112.05H33.6534C33.3384 112.05 33.0234 112.275 32.8884 112.545L18.8034 142.83C18.5334 143.415 18.8934 144 19.5684 144ZM30.4584 133.2L33.8334 125.775H33.8784L37.2984 133.2H30.4584ZM52.6483 143.145C52.6483 143.595 53.0083 144 53.5033 144H64.6633C70.0183 144 74.4733 140.355 74.4733 135.315C74.4733 131.175 70.8283 128.97 68.4433 127.98C70.5583 126.855 73.6633 124.335 73.6633 120.87C73.6633 116.145 69.2983 112.5 63.9883 112.5H53.5033C53.0083 112.5 52.6483 112.905 52.6483 113.355V143.145ZM59.6683 125.28V118.98H63.1783C64.8883 118.98 66.3283 120.24 66.3283 122.04C66.3283 123.84 64.8883 125.28 63.1783 125.28H59.6683ZM59.6683 137.565V131.13H63.3133C65.0683 131.13 67.0033 132.48 67.0033 134.28C67.0033 136.125 65.5183 137.565 63.7633 137.565H59.6683ZM77.907 128.295C77.907 137.295 85.062 144.45 94.062 144.45C103.062 144.45 110.262 137.295 110.262 128.295C110.262 119.295 103.062 112.05 94.062 112.05C85.062 112.05 77.907 119.295 77.907 128.295ZM85.107 128.295C85.107 123.345 89.157 119.25 94.062 119.25C99.012 119.25 103.062 123.345 103.062 128.295C103.062 133.2 99.012 137.25 94.062 137.25C89.157 137.25 85.107 133.2 85.107 128.295ZM115.26 131.94C115.26 138.78 120.975 144.45 128.04 144.45C135.15 144.45 140.91 138.78 140.91 131.94V113.355C140.91 112.905 140.505 112.5 140.055 112.5H134.52C134.025 112.5 133.665 112.905 133.665 113.355V131.58C133.665 134.73 131.28 137.25 128.04 137.25C124.845 137.25 122.505 134.73 122.505 131.58V113.355C122.505 112.905 122.145 112.5 121.65 112.5H116.115C115.665 112.5 115.26 112.905 115.26 113.355V131.94ZM152.191 143.145C152.191 143.595 152.596 144 153.046 144H158.446C158.896 144 159.301 143.595 159.301 143.145V119.115H165.736C166.231 119.115 166.591 118.71 166.591 118.26V113.355C166.591 112.905 166.231 112.5 165.736 112.5H145.756C145.261 112.5 144.901 112.905 144.901 113.355V118.26C144.901 118.71 145.261 119.115 145.756 119.115H152.191V143.145ZM179.033 143.01C178.943 143.595 179.348 144 179.888 144H185.198C185.648 144 186.008 143.64 186.053 143.28L188.033 129.375H188.123L195.728 143.955C195.863 144.225 196.223 144.45 196.493 144.45H197.303C197.528 144.45 197.933 144.225 198.068 143.955L205.628 129.375H205.718L207.743 143.28C207.788 143.64 208.193 144 208.598 144H213.908C214.448 144 214.853 143.595 214.763 143.01L209.678 112.77C209.633 112.365 209.228 112.05 208.868 112.05H208.148C207.923 112.05 207.518 112.23 207.383 112.5L196.943 131.94H196.853L186.413 112.5C186.278 112.23 185.873 112.05 185.648 112.05H184.928C184.568 112.05 184.163 112.365 184.118 112.77L179.033 143.01ZM220.519 143.145C220.519 143.595 220.879 144 221.374 144H240.004C240.499 144 240.859 143.595 240.859 143.145V138.24C240.859 137.79 240.499 137.385 240.004 137.385H227.539V131.31H237.799C238.249 131.31 238.654 130.95 238.654 130.455V125.55C238.654 125.1 238.249 124.695 237.799 124.695H227.539V119.115H240.004C240.499 119.115 240.859 118.71 240.859 118.26V113.355C240.859 112.905 240.499 112.5 240.004 112.5H221.374C220.879 112.5 220.519 112.905 220.519 113.355V143.145Z" fill="#2F2A3D"/>
</svg>
