<svg width="120" height="120" viewBox="0 0 120 120" fill="none" xmlns="http://www.w3.org/2000/svg">
<path d="M60 120C93.1371 120 120 93.1371 120 60C120 26.8629 93.1371 0 60 0C26.8629 0 0 26.8629 0 60C0 93.1371 26.8629 120 60 120Z" fill="#EC6C6D"/>
<path d="M15.7042 68.5715H17.6719C18.0297 68.5715 18.2264 68.3568 18.3159 68.1422L18.9599 66.7111H23.8254L24.4694 68.1243C24.6304 68.4641 24.7735 68.5715 25.0955 68.5715H27.0811C27.3494 68.5715 27.4925 68.3389 27.3852 68.1064L21.7862 56.0676C21.7325 55.9603 21.6073 55.8708 21.4821 55.8708H21.3032C21.178 55.8708 21.0528 55.9603 20.9991 56.0676L15.4001 68.1064C15.2928 68.3389 15.4359 68.5715 15.7042 68.5715ZM20.0331 64.2783L21.3748 61.3268H21.3926L22.7521 64.2783H20.0331ZM28.854 68.2316C28.854 68.4105 28.9971 68.5715 29.1938 68.5715H33.6301C35.7588 68.5715 37.5297 67.1225 37.5297 65.119C37.5297 63.4733 36.0808 62.5968 35.1327 62.2033C35.9735 61.7561 37.2078 60.7543 37.2078 59.3769C37.2078 57.4987 35.4726 56.0497 33.3618 56.0497H29.1938C28.9971 56.0497 28.854 56.2107 28.854 56.3896V68.2316ZM31.6445 61.13V58.6256H33.0398C33.7196 58.6256 34.292 59.1265 34.292 59.842C34.292 60.5576 33.7196 61.13 33.0398 61.13H31.6445ZM31.6445 66.0135V63.4554H33.0935C33.7911 63.4554 34.5603 63.9921 34.5603 64.7076C34.5603 65.441 33.97 66.0135 33.2723 66.0135H31.6445ZM38.8948 62.3285C38.8948 65.9061 41.739 68.7504 45.3166 68.7504C48.8943 68.7504 51.7564 65.9061 51.7564 62.3285C51.7564 58.7509 48.8943 55.8708 45.3166 55.8708C41.739 55.8708 38.8948 58.7509 38.8948 62.3285ZM41.7569 62.3285C41.7569 60.3608 43.3668 58.733 45.3166 58.733C47.2843 58.733 48.8943 60.3608 48.8943 62.3285C48.8943 64.2783 47.2843 65.8882 45.3166 65.8882C43.3668 65.8882 41.7569 64.2783 41.7569 62.3285ZM53.7431 63.7774C53.7431 66.4964 56.0149 68.7504 58.8233 68.7504C61.6497 68.7504 63.9394 66.4964 63.9394 63.7774V56.3896C63.9394 56.2107 63.7784 56.0497 63.5995 56.0497H61.3992C61.2025 56.0497 61.0594 56.2107 61.0594 56.3896V63.6343C61.0594 64.8865 60.1113 65.8882 58.8233 65.8882C57.5533 65.8882 56.6231 64.8865 56.6231 63.6343V56.3896C56.6231 56.2107 56.48 56.0497 56.2832 56.0497H54.083C53.9041 56.0497 53.7431 56.2107 53.7431 56.3896V63.7774ZM68.4239 68.2316C68.4239 68.4105 68.5849 68.5715 68.7638 68.5715H70.9104C71.0893 68.5715 71.2503 68.4105 71.2503 68.2316V58.6793H73.8083C74.005 58.6793 74.1481 58.5183 74.1481 58.3394V56.3896C74.1481 56.2107 74.005 56.0497 73.8083 56.0497H65.8659C65.6691 56.0497 65.526 56.2107 65.526 56.3896V58.3394C65.526 58.5183 65.6691 58.6793 65.8659 58.6793H68.4239V68.2316ZM79.0934 68.1779C79.0576 68.4105 79.2186 68.5715 79.4333 68.5715H81.5441C81.723 68.5715 81.8661 68.4284 81.884 68.2853L82.6711 62.7578H82.7068L85.7299 68.5536C85.7836 68.6609 85.9267 68.7504 86.034 68.7504H86.356C86.4455 68.7504 86.6065 68.6609 86.6601 68.5536L89.6653 62.7578H89.7011L90.5061 68.2853C90.524 68.4284 90.685 68.5715 90.846 68.5715H92.9568C93.1714 68.5715 93.3324 68.4105 93.2966 68.1779L91.2753 56.1571C91.2574 55.9961 91.0964 55.8708 90.9533 55.8708H90.6671C90.5776 55.8708 90.4166 55.9424 90.363 56.0497L86.2129 63.7774H86.1771L82.0271 56.0497C81.9734 55.9424 81.8124 55.8708 81.723 55.8708H81.4368C81.2937 55.8708 81.1327 55.9961 81.1148 56.1571L79.0934 68.1779ZM95.5856 68.2316C95.5856 68.4105 95.7287 68.5715 95.9255 68.5715H103.331C103.528 68.5715 103.671 68.4105 103.671 68.2316V66.2818C103.671 66.1029 103.528 65.9419 103.331 65.9419H98.3761V63.527H102.455C102.634 63.527 102.795 63.3839 102.795 63.1871V61.2373C102.795 61.0584 102.634 60.8974 102.455 60.8974H98.3761V58.6793H103.331C103.528 58.6793 103.671 58.5183 103.671 58.3394V56.3896C103.671 56.2107 103.528 56.0497 103.331 56.0497H95.9255C95.7287 56.0497 95.5856 56.2107 95.5856 56.3896V68.2316Z" fill="#2F2A3D"/>
</svg>
