<svg width="59" height="32" viewBox="0 0 59 32" fill="none" xmlns="http://www.w3.org/2000/svg">
<path d="M28.8777 0.00298511C27.8874 0.0261409 26.9409 0.415872 26.2215 1.09674L1.22148 25.0968C0.458546 25.8353 0.0195228 26.8461 0.000635482 27.9077C-0.0182518 28.9693 0.384537 29.9951 1.12072 30.7602C1.8569 31.5254 2.86641 31.9675 3.92797 31.9896C4.98953 32.0116 6.01654 31.6119 6.78388 30.878L29.0027 9.53424L51.2215 30.878C51.9888 31.6119 53.0158 32.0116 54.0774 31.9896C55.139 31.9675 56.1485 31.5254 56.8846 30.7602C57.6208 29.9951 58.0236 28.9693 58.0047 27.9077C57.9858 26.8461 57.5468 25.8353 56.7839 25.0968L31.7839 1.09674C31.3968 0.729926 30.9403 0.444173 30.4412 0.256342C29.9421 0.0685106 29.4105 -0.0176083 28.8777 0.00298511V0.00298511Z" fill="#EC6C6D"/>
</svg>
