<svg width="1440" height="3513" viewBox="0 0 1440 3513" fill="none" xmlns="http://www.w3.org/2000/svg">
<g clip-path="url(#clip0_33_199)">
<rect width="1440" height="3513" fill="#2F2A3D"/>
<g clip-path="url(#clip1_33_199)">
<path d="M718.464 633.05C718.464 633.55 718.864 634 719.414 634H725.314C725.814 634 726.264 633.55 726.264 633.05V621.3H731.514C737.614 621.3 742.664 616.25 742.664 610.05C742.664 604 737.614 599 731.464 599H719.414C718.864 599 718.464 599.45 718.464 599.95V633.05ZM726.264 614V606.35H731.014C733.164 606.35 734.964 607.95 734.964 610.05C734.964 612.3 733.164 614 731.014 614H726.264ZM747.761 633.05C747.761 633.55 748.161 634 748.711 634H754.661C755.161 634 755.611 633.55 755.611 633.05V620.3H759.061L765.711 633.55C765.811 633.75 766.111 634 766.511 634H773.161C774.011 634 774.361 633.2 774.011 632.55L767.161 619.85C771.511 618.1 774.561 614.4 774.561 609.8C774.561 603.85 769.661 599 763.661 599H748.711C748.161 599 747.761 599.45 747.761 599.95V633.05ZM755.611 613.95V606.15H763.011C765.061 606.15 766.811 607.85 766.811 609.95C766.811 612.05 765.061 613.95 763.011 613.95H755.611ZM778.707 616.55C778.707 626.55 786.657 634.5 796.657 634.5C806.657 634.5 814.657 626.55 814.657 616.55C814.657 606.55 806.657 598.5 796.657 598.5C786.657 598.5 778.707 606.55 778.707 616.55ZM786.707 616.55C786.707 611.05 791.207 606.5 796.657 606.5C802.157 606.5 806.657 611.05 806.657 616.55C806.657 622 802.157 626.5 796.657 626.5C791.207 626.5 786.707 622 786.707 616.55ZM815.124 630.85C815.974 631.9 818.374 634.5 822.724 634.5C828.574 634.5 833.474 630.5 833.474 623.55V599.95C833.474 599.45 833.074 599 832.524 599H826.424C825.874 599 825.474 599.45 825.474 599.95V623.5C825.474 626 823.924 627.3 822.524 627.3C821.174 627.3 820.574 626.85 819.974 626.25C819.574 625.85 819.024 625.9 818.624 626.25L815.224 629.6C814.924 629.95 814.874 630.45 815.124 630.85ZM841.316 633.05C841.316 633.55 841.716 634 842.266 634H862.966C863.516 634 863.916 633.55 863.916 633.05V627.6C863.916 627.1 863.516 626.65 862.966 626.65H849.116V619.9H860.516C861.016 619.9 861.466 619.5 861.466 618.95V613.5C861.466 613 861.016 612.55 860.516 612.55H849.116V606.35H862.966C863.516 606.35 863.916 605.9 863.916 605.4V599.95C863.916 599.45 863.516 599 862.966 599H842.266C841.716 599 841.316 599.45 841.316 599.95V633.05ZM868.063 616.55C868.063 626.55 876.113 634.5 886.113 634.5C890.563 634.5 894.863 632.95 898.263 629.65C898.613 629.3 898.663 628.65 898.313 628.3L894.413 624.15C894.113 623.8 893.463 623.8 893.113 624.1C891.312 625.65 888.763 626.5 886.413 626.5C880.763 626.5 876.563 621.9 876.563 616.35C876.563 610.75 880.713 606.05 886.363 606.05C888.813 606.05 891.263 606.95 893.113 608.6C893.463 608.95 894.013 608.95 894.363 608.6L898.263 604.55C898.663 604.15 898.663 603.55 898.213 603.15C894.813 600.05 891.113 598.5 886.113 598.5C876.113 598.5 868.063 606.55 868.063 616.55ZM908.755 633.05C908.755 633.55 909.205 634 909.705 634H915.705C916.205 634 916.655 633.55 916.655 633.05V606.35H923.805C924.355 606.35 924.755 605.9 924.755 605.4V599.95C924.755 599.45 924.355 599 923.805 599H901.605C901.055 599 900.655 599.45 900.655 599.95V605.4C900.655 605.9 901.055 606.35 901.605 606.35H908.755V633.05ZM927.993 630.65C929.143 631.8 932.743 634.5 939.243 634.5C946.593 634.5 951.043 629.3 951.043 624.15C951.043 617.35 944.843 614.3 940.943 612.75C936.993 611.15 935.493 609.75 935.493 607.9C935.493 606.55 936.843 605.35 938.643 605.35C941.693 605.35 945.343 608.1 945.793 608.35C946.243 608.7 947.143 608.25 947.493 607.7L950.043 603.85C950.243 603.5 950.343 602.6 949.743 602.25C948.243 601.15 944.243 598.5 939.043 598.5C931.343 598.5 927.493 603.5 927.493 608.45C927.493 614.45 932.893 617.8 937.193 619.5C940.593 620.85 942.343 622.45 942.343 624.55C942.343 626.3 940.893 627.55 938.893 627.55C935.593 627.55 931.993 624.9 931.793 624.8C931.443 624.55 930.493 624.45 930.093 625.1L927.743 629.25C927.343 629.95 927.493 630.15 927.993 630.65Z" fill="#2F2A3D"/>
<circle cx="470" cy="1105" r="2" fill="#C4C4C4"/>
<circle cx="437" cy="139" r="2" fill="#C4C4C4"/>
<circle cx="1241" cy="1126" r="2" fill="#C4C4C4"/>
<circle cx="982" cy="1130" r="2" fill="#C4C4C4"/>
<circle cx="1245" cy="173" r="2" fill="#C4C4C4"/>
<circle cx="1080" cy="125" r="2" fill="#C4C4C4"/>
<circle cx="470" cy="1335" r="2" fill="#C4C4C4"/>
<circle cx="470" cy="1335" r="2" fill="#C4C4C4"/>
<circle cx="591" cy="579" r="2" fill="#C4C4C4"/>
<circle cx="527" cy="403" r="2" fill="#C4C4C4"/>
<circle cx="468" cy="765" r="2" fill="#C4C4C4"/>
<circle cx="869" cy="1024" r="2" fill="#C4C4C4"/>
<circle cx="1188" cy="786" r="2" fill="#C4C4C4"/>
<circle cx="1057" cy="291" r="2" fill="#C4C4C4"/>
<circle cx="1057" cy="921" r="2" fill="#C4C4C4"/>
<circle cx="799" cy="389" r="2" fill="#C4C4C4"/>
<circle cx="437" cy="575" r="2" fill="#C4C4C4"/>
<circle cx="560" cy="880" r="2" fill="#C4C4C4"/>
<circle cx="799" cy="840" r="2" fill="#C4C4C4"/>
<circle cx="658" cy="1257" r="2" fill="#C4C4C4"/>
<circle cx="1088" cy="1261" r="2" fill="#C4C4C4"/>
<circle cx="873" cy="229" r="2" fill="#C4C4C4"/>
<circle cx="638" cy="170" r="2" fill="#C4C4C4"/>
<circle cx="342" cy="272" r="2" fill="#C4C4C4"/>
<circle cx="1302" cy="309" r="2" fill="#C4C4C4"/>
<circle cx="393" cy="826" r="2" fill="#C4C4C4"/>
<circle cx="1306" cy="940" r="2" fill="#C4C4C4"/>
<circle cx="986" cy="598" r="2" fill="#C4C4C4"/>
<circle cx="1169" cy="501" r="2" fill="#C4C4C4"/>
</g>
<circle cx="1375" cy="461" r="2" fill="#C4C4C4"/>
<circle cx="55" cy="558" r="2" fill="#C4C4C4"/>
<circle cx="141" cy="403" r="2" fill="#C4C4C4"/>
<circle cx="90" cy="190" r="2" fill="#C4C4C4"/>
<circle cx="296" cy="47" r="2" fill="#C4C4C4"/>
<circle cx="877" cy="60" r="2" fill="#C4C4C4"/>
<circle cx="73" cy="2151" r="2" fill="#C4C4C4"/>
<circle cx="299" cy="2100" r="2" fill="#C4C4C4"/>
<circle cx="411" cy="607" r="2" fill="#C4C4C4"/>
<circle cx="35" cy="1037" r="2" fill="#C4C4C4"/>
<circle cx="31" cy="1286" r="2" fill="#C4C4C4"/>
<circle cx="1345" cy="1758" r="2" fill="#C4C4C4"/>
<circle cx="370" cy="2258" r="2" fill="#C4C4C4"/>
<circle cx="722" cy="1849" r="2" fill="#C4C4C4"/>
<circle cx="726" cy="2742" r="2" fill="#C4C4C4"/>
<circle cx="235" cy="2697" r="2" fill="#C4C4C4"/>
<circle cx="1336" cy="2652" r="2" fill="#C4C4C4"/>
<circle cx="120" cy="2404" r="2" fill="#C4C4C4"/>
<circle cx="1110" cy="1909" r="2" fill="#C4C4C4"/>
<circle cx="1001" cy="2463" r="2" fill="#C4C4C4"/>
<circle cx="1302" cy="2966" r="2" fill="#C4C4C4"/>
<circle cx="645" cy="2408" r="2" fill="#C4C4C4"/>
<circle cx="190" cy="2970" r="2" fill="#C4C4C4"/>
<circle cx="493" cy="2038" r="2" fill="#C4C4C4"/>
<circle cx="938" cy="2993" r="2" fill="#C4C4C4"/>
<circle cx="497" cy="2972" r="2" fill="#C4C4C4"/>
<circle cx="813" cy="1320" r="2" fill="#C4C4C4"/>
<circle cx="90" cy="190" r="2" fill="#C4C4C4"/>
<circle cx="844" cy="2119" r="2" fill="#C4C4C4"/>
<circle cx="892" cy="2310" r="2" fill="#C4C4C4"/>
<circle cx="1385" cy="2133" r="2" fill="#C4C4C4"/>
<circle cx="122" cy="2230" r="2" fill="#C4C4C4"/>
<circle cx="100" cy="2003" r="2" fill="#C4C4C4"/>
<circle cx="47" cy="2682" r="2" fill="#C4C4C4"/>
<circle cx="43" cy="2947" r="2" fill="#C4C4C4"/>
<circle cx="1389" cy="2826" r="2" fill="#C4C4C4"/>
<circle cx="767" cy="2249" r="2" fill="#C4C4C4"/>
<circle cx="1036" cy="2115" r="2" fill="#C4C4C4"/>
<circle cx="840" cy="2837" r="2" fill="#C4C4C4"/>
<circle cx="844" cy="2119" r="2" fill="#C4C4C4"/>
<circle cx="435" cy="2514" r="2" fill="#C4C4C4"/>
<circle cx="616" cy="2155" r="2" fill="#C4C4C4"/>
<circle cx="1079" cy="1655" r="2" fill="#C4C4C4"/>
<circle cx="1332" cy="2262" r="2" fill="#C4C4C4"/>
<circle cx="1320" cy="1324" r="2" fill="#C4C4C4"/>
<circle cx="298" cy="222" r="2" fill="#C4C4C4"/>
<circle cx="359" cy="743" r="2" fill="#C4C4C4"/>
<circle cx="47" cy="99" r="2" fill="#C4C4C4"/>
<circle cx="316" cy="1041" r="2" fill="#C4C4C4"/>
<circle cx="199" cy="1480" r="2" fill="#C4C4C4"/>
<circle cx="480" cy="1676" r="2" fill="#C4C4C4"/>
<circle cx="137" cy="1892" r="2" fill="#C4C4C4"/>
<circle cx="199" cy="1480" r="2" fill="#C4C4C4"/>
<circle cx="234" cy="611" r="2" fill="#C4C4C4"/>
<circle cx="241" cy="845" r="2" fill="#C4C4C4"/>
<circle cx="51" cy="703" r="2" fill="#C4C4C4"/>
<circle cx="35" cy="881" r="2" fill="#C4C4C4"/>
<circle cx="218" cy="707" r="2" fill="#C4C4C4"/>
<circle cx="767" cy="2571" r="2" fill="#C4C4C4"/>
<circle cx="700" cy="587" r="2" fill="#C4C4C4"/>
<circle cx="552" cy="1420" r="2" fill="#C4C4C4"/>
<circle cx="888" cy="3354" r="2" fill="#C4C4C4"/>
<circle cx="194" cy="3358" r="2" fill="#C4C4C4"/>
<circle cx="493" cy="2746" r="2" fill="#C4C4C4"/>
<circle cx="579" cy="3376" r="2" fill="#C4C4C4"/>
<circle cx="1316" cy="3350" r="2" fill="#C4C4C4"/>
<circle cx="718" cy="3195" r="2" fill="#C4C4C4"/>
<circle cx="1139" cy="2728" r="2" fill="#C4C4C4"/>
<circle cx="90" cy="190" r="2" fill="#C4C4C4"/>
</g>
<defs>
<clipPath id="clip0_33_199">
<rect width="1440" height="3513" fill="white"/>
</clipPath>
<clipPath id="clip1_33_199">
<rect width="988" height="1235" fill="white" transform="translate(342 123)"/>
</clipPath>
</defs>
</svg>
