<svg width="85" height="85" viewBox="0 0 85 85" fill="none" xmlns="http://www.w3.org/2000/svg">
<path d="M42.5 85C65.9721 85 85 65.9721 85 42.5C85 19.0279 65.9721 0 42.5 0C19.0279 0 0 19.0279 0 42.5C0 65.9721 19.0279 85 42.5 85Z" fill="#EC6C6D"/>
<path d="M30.0254 23.2424C31.858 23.2424 33.5308 23.4056 35.0438 23.7286C36.5568 24.0516 37.8488 24.582 38.9266 25.3198C40.0044 26.0576 40.8408 27.0368 41.4358 28.2608C42.0308 29.4848 42.3266 30.9944 42.3266 32.793C42.3266 34.7344 41.8846 36.3528 41.004 37.6482C40.1234 38.9436 38.8178 40.0044 37.094 40.8306C39.4672 41.514 41.2386 42.7108 42.4082 44.4176C43.5778 46.1244 44.1626 48.1848 44.1626 50.5954C44.1626 52.5368 43.7852 54.2198 43.0304 55.641C42.2756 57.0622 41.259 58.2216 39.9806 59.1192C38.7022 60.0202 37.247 60.6832 35.6116 61.115C33.966 61.5468 32.2694 61.7644 30.5694 61.761H11.9V23.2424H30.0254ZM28.9476 38.8314C30.4572 38.8314 31.6982 38.471 32.6706 37.7536C33.643 37.0328 34.1292 35.8666 34.1258 34.2482C34.1258 33.3506 33.9626 32.6128 33.6396 32.0382C33.3166 31.4636 32.8848 31.0114 32.3442 30.6884C31.8036 30.3654 31.1848 30.141 30.4844 30.0152C29.7636 29.8894 29.0326 29.8248 28.2982 29.8282H20.3728V38.8382L28.9476 38.8314V38.8314ZM29.4338 55.1752C30.2328 55.1786 31.0284 55.097 31.807 54.9338C32.5618 54.7706 33.2282 54.502 33.8028 54.1246C34.3774 53.7472 34.8364 53.2338 35.1798 52.5878C35.5198 51.9418 35.6932 51.1122 35.6932 50.1058C35.6932 48.1304 35.1356 46.716 34.0204 45.8728C32.9052 45.0262 31.4296 44.6046 29.597 44.6046H20.3728V55.1786L29.4338 55.1752V55.1752ZM54.8181 54.366C55.9673 55.4812 57.6231 56.0388 59.7821 56.0388C61.3291 56.0388 62.6585 55.6512 63.7737 54.8794C64.8889 54.1076 65.5723 53.2882 65.8239 52.4246H72.5661C71.4883 55.7702 69.8325 58.1604 67.6021 59.5986C65.3717 61.0368 62.6755 61.7576 59.5101 61.7576C57.3171 61.7576 55.3383 61.4074 53.5771 60.707C51.8159 60.0066 50.3233 59.007 49.0993 57.7116C47.8753 56.4162 46.9302 54.8726 46.2672 53.074C45.6042 51.2754 45.271 49.2966 45.271 47.141C45.271 45.0568 45.6109 43.1154 46.2943 41.3168C46.9777 39.5182 47.9502 37.9644 49.2082 36.652C50.4662 35.3396 51.9689 34.306 53.7131 33.5512C55.4573 32.7964 57.3919 32.419 59.5135 32.419C61.8867 32.419 63.9539 32.878 65.7185 33.796C67.4797 34.714 68.9281 35.9448 70.0603 37.4918C71.1925 39.0388 72.0119 40.8 72.5151 42.7788C73.0183 44.7576 73.1985 46.8248 73.0557 48.9838H52.9345C53.0399 51.4556 53.6689 53.2542 54.8181 54.366ZM63.4779 39.695C62.5599 38.6886 61.1659 38.1854 59.2959 38.1854C58.0719 38.1854 57.0553 38.3928 56.2495 38.8042C55.4403 39.219 54.7943 39.729 54.3081 40.341C53.8219 40.953 53.4819 41.599 53.2847 42.2824C53.0875 42.9658 52.9685 43.5778 52.9345 44.115H65.3955C65.0317 42.177 64.3925 40.7014 63.4779 39.695V39.695ZM51.6221 25.1974H67.1907V29.5154H51.6221V25.1974V25.1974Z" fill="white"/>
</svg>
