<svg width="120" height="120" viewBox="0 0 120 120" fill="none" xmlns="http://www.w3.org/2000/svg">
<path d="M60 120C93.1371 120 120 93.1371 120 60C120 26.8629 93.1371 0 60 0C26.8629 0 0 26.8629 0 60C0 93.1371 26.8629 120 60 120Z" fill="#EC6C6D"/>
<path d="M19.9758 63.8192C19.9758 67.3968 22.8558 70.2411 26.4335 70.2411C28.0255 70.2411 29.5639 69.6865 30.7803 68.5059C30.9055 68.3807 30.9234 68.1482 30.7982 68.0229L29.4029 66.5382C29.2956 66.413 29.063 66.413 28.9378 66.5203C28.2938 67.0749 27.3815 67.379 26.5408 67.379C24.5194 67.379 23.0168 65.7332 23.0168 63.7477C23.0168 61.7442 24.5015 60.0627 26.5229 60.0627C27.3994 60.0627 28.276 60.3847 28.9378 60.975C29.063 61.1002 29.2598 61.1002 29.385 60.975L30.7803 59.526C30.9234 59.3829 30.9234 59.1683 30.7624 59.0252C29.546 57.9161 28.2223 57.3616 26.4335 57.3616C22.8558 57.3616 19.9758 60.2416 19.9758 63.8192ZM31.9596 63.8192C31.9596 67.3968 34.8038 70.2411 38.3814 70.2411C41.9591 70.2411 44.8212 67.3968 44.8212 63.8192C44.8212 60.2416 41.9591 57.3616 38.3814 57.3616C34.8038 57.3616 31.9596 60.2416 31.9596 63.8192ZM34.8217 63.8192C34.8217 61.8515 36.4316 60.2237 38.3814 60.2237C40.3491 60.2237 41.9591 61.8515 41.9591 63.8192C41.9591 65.769 40.3491 67.379 38.3814 67.379C36.4316 67.379 34.8217 65.769 34.8217 63.8192ZM46.9868 69.7223C46.9868 69.9012 47.1478 70.0622 47.3267 70.0622H49.4554C49.6521 70.0622 49.7952 69.9012 49.7952 69.7223V63.05H49.8131L56.879 70.1516C56.9147 70.1874 57.0578 70.2411 57.1115 70.2411H57.3977C57.5766 70.2411 57.7376 70.098 57.7376 69.9191V57.8803C57.7376 57.7014 57.5766 57.5405 57.3977 57.5405H55.2511C55.0544 57.5405 54.9113 57.7014 54.9113 57.8803V64.2306H54.8934L47.756 57.3616H47.3088C47.1299 57.3616 46.9689 57.5047 46.9689 57.6836L46.9868 69.7223ZM62.4321 69.7223C62.4321 69.9012 62.5931 70.0622 62.772 70.0622H64.9186C65.0975 70.0622 65.2585 69.9012 65.2585 69.7223V60.17H67.8165C68.0133 60.17 68.1564 60.009 68.1564 59.8301V57.8803C68.1564 57.7014 68.0133 57.5405 67.8165 57.5405H59.8741C59.6773 57.5405 59.5342 57.7014 59.5342 57.8803V59.8301C59.5342 60.009 59.6773 60.17 59.8741 60.17H62.4321V69.7223ZM67.9888 70.0622H69.9565C70.3143 70.0622 70.511 69.8475 70.6005 69.6329L71.2445 68.2018H76.1098L76.7538 69.615C76.9148 69.9549 77.0579 70.0622 77.3799 70.0622H79.3655C79.6338 70.0622 79.7769 69.8296 79.6696 69.5971L74.0708 57.5583C74.0171 57.451 73.8919 57.3616 73.7667 57.3616H73.5878C73.4626 57.3616 73.3374 57.451 73.2837 57.5583L67.6846 69.5971C67.5773 69.8296 67.7204 70.0622 67.9888 70.0622ZM72.3177 65.769L73.6594 62.8175H73.6773L75.0365 65.769H72.3177ZM80.1212 63.8192C80.1212 67.3968 83.0013 70.2411 86.5789 70.2411C88.1709 70.2411 89.7093 69.6865 90.9257 68.5059C91.0509 68.3807 91.0688 68.1482 90.9436 68.0229L89.5483 66.5382C89.441 66.413 89.2085 66.413 89.0832 66.5203C88.4393 67.0749 87.527 67.379 86.6862 67.379C84.6649 67.379 83.1622 65.7332 83.1622 63.7477C83.1622 61.7442 84.647 60.0627 86.6683 60.0627C87.5448 60.0627 88.4214 60.3847 89.0832 60.975C89.2085 61.1002 89.4052 61.1002 89.5304 60.975L90.9257 59.526C91.0688 59.3829 91.0688 59.1683 90.9078 59.0252C89.6914 57.9161 88.3677 57.3616 86.5789 57.3616C83.0013 57.3616 80.1212 60.2416 80.1212 63.8192ZM94.68 69.7223C94.68 69.9012 94.841 70.0622 95.0199 70.0622H97.1665C97.3454 70.0622 97.5063 69.9012 97.5063 69.7223V60.17H100.064C100.261 60.17 100.404 60.009 100.404 59.8301V57.8803C100.404 57.7014 100.261 57.5405 100.064 57.5405H92.122C91.9252 57.5405 91.7821 57.7014 91.7821 57.8803V59.8301C91.7821 60.009 91.9252 60.17 92.122 60.17H94.68V69.7223Z" fill="#2F2A3D"/>
</svg>
