<svg width="1440" height="435" viewBox="0 0 1440 435" fill="none" xmlns="http://www.w3.org/2000/svg">
<rect width="1440" height="441" fill="#EC6C6D"/>
<circle cx="298" cy="218" r="155" fill="#2F2A3D"/>
<circle cx="387" cy="131" r="2" fill="#C4C4C4"/>
<circle cx="327" cy="98" r="2" fill="#C4C4C4"/>
<circle cx="351" cy="320" r="2" fill="#C4C4C4"/>
<circle cx="222" cy="112" r="2" fill="#C4C4C4"/>
<circle cx="296" cy="322" r="2" fill="#C4C4C4"/>
<circle cx="402" cy="189" r="2" fill="#C4C4C4"/>
<circle cx="179" cy="184" r="2" fill="#C4C4C4"/>
<circle cx="351" cy="267" r="2" fill="#C4C4C4"/>
<circle cx="406" cy="276" r="2" fill="#C4C4C4"/>
<circle cx="278" cy="138" r="2" fill="#C4C4C4"/>
<circle cx="355" cy="170" r="2" fill="#C4C4C4"/>
<circle cx="375" cy="227" r="2" fill="#C4C4C4"/>
<circle cx="323" cy="351" r="2" fill="#C4C4C4"/>
<circle cx="226" cy="157" r="2" fill="#C4C4C4"/>
<circle cx="282" cy="88" r="2" fill="#C4C4C4"/>
<path d="M340.888 220.661C340.84 219.528 340.44 218.709 340.279 218.144C340.095 217.581 339.998 217.295 339.998 217.295C339.998 217.295 340.09 217.589 340.268 218.162C340.427 218.736 340.802 219.582 340.831 220.723C341.117 222.918 340.734 226.639 337.843 229.94C336.348 231.533 334.301 232.758 331.757 233.718C329.286 234.775 326.608 235.924 323.727 237.157C317.971 239.625 311.427 242.432 304.211 245.528C289.777 251.741 272.648 259.115 253.726 267.261C251.338 268.248 249.016 269.514 246.529 269.806C244.161 270.114 241.469 269.665 239.329 268.291C234.757 265.715 233.616 259.804 231.18 254.837C228.969 249.708 226.722 244.495 224.442 239.214C223.301 236.573 222.155 233.915 221 231.241L219.263 227.22C218.991 226.577 218.637 225.814 218.435 225.263L217.766 223.162C217.237 220.566 217.691 217.603 219.058 215.264C220.41 212.841 222.608 211.189 225.168 210.094C230.398 207.815 235.548 205.571 240.6 203.37C250.702 198.957 260.415 194.715 269.649 190.681C278.877 186.639 287.624 182.804 295.795 179.225C299.882 177.432 303.82 175.702 307.602 174.041C308.443 173.628 309.52 173.382 310.45 173.049C311.405 172.973 312.311 172.73 313.264 172.83C314.213 172.898 315.155 172.952 316.034 173.279C316.956 173.465 317.766 173.909 318.572 174.328C319.408 174.701 320.029 175.391 320.76 175.891C321.353 176.545 321.963 177.189 322.462 177.892C323.36 179.352 324.061 180.963 324.728 182.534C326.095 185.649 327.382 188.585 328.585 191.33C330.997 196.813 333.066 201.529 334.757 205.379C338.142 213.074 340.003 217.305 340.003 217.305C340.003 217.305 338.185 212.971 334.889 205.116C333.233 201.191 331.207 196.383 328.855 190.8C327.673 188.007 326.414 185.022 325.076 181.853C324.739 181.061 324.396 180.257 324.051 179.444C323.598 178.67 323.231 177.819 322.686 177.078C321.542 175.639 320.166 174.244 318.386 173.42C316.687 172.435 314.661 172.092 312.624 172C310.496 172.114 308.567 172.627 306.612 173.536C302.776 175.174 298.786 176.878 294.651 178.643C286.389 182.185 277.547 185.971 268.235 189.964C258.929 193.971 249.151 198.184 238.998 202.556C233.924 204.76 228.755 207.006 223.509 209.288C217.858 211.711 214.707 218.768 216.757 224.738C221.257 235.77 225.969 246.174 230.371 256.438C231.507 258.993 232.529 261.521 233.732 264.033C233.802 264.192 233.91 264.325 233.988 264.482C232.095 265.274 225.416 268.072 215.659 272.158C212.757 273.385 209.585 274.729 206.189 276.165C204.489 276.887 202.736 277.63 200.931 278.398C200.03 278.782 199.116 279.174 198.188 279.569C197.398 279.967 196.3 280.199 195.353 280.529C191.676 281.262 187.072 280.099 184.415 276.763C182.985 275.229 182.249 273.115 181.305 270.976C180.39 268.857 179.465 266.712 178.529 264.544C177.59 262.378 176.662 260.239 175.751 258.136L175.068 256.565L174.898 256.173L174.79 255.835L174.531 255.029C174.081 253.934 174.094 252.942 173.96 251.936C173.898 247.791 176.074 243.757 179.433 241.88C181.008 240.866 182.988 240.199 184.679 239.388C186.422 238.612 188.116 237.863 189.75 237.135C193.017 235.678 196.052 234.323 198.819 233.088C209.857 228.11 216.617 225.06 216.617 225.06C216.617 225.06 209.622 227.912 198.312 232.522C195.485 233.696 192.386 234.983 189.057 236.365C187.393 237.06 185.675 237.779 183.9 238.522C182.127 239.296 180.299 239.928 178.435 241.05C176.673 242.218 175.044 243.803 174.065 245.833C172.953 247.796 172.511 250.119 172.632 252.482C171.003 253.131 166.382 254.972 159.698 257.636C155.49 259.385 150.481 261.297 144.919 263.817C142.097 265.209 139.686 267.88 138.647 271.206C138.375 272.036 138.14 272.883 138.119 273.777L138 275.108L138.143 276.487C138.189 277.452 138.448 278.271 138.726 279.08L138.923 279.699L139.047 280.077L139.176 280.375L139.694 281.578C140.347 283.157 141.099 284.828 142.165 286.312C143.284 287.732 144.628 288.951 146.176 289.763C149.213 291.452 152.898 291.707 155.898 290.744C161.667 288.478 166.517 286.01 170.763 284.114C177.434 280.975 182.068 278.793 183.687 278.033C185.308 279.723 187.336 281.021 189.543 281.54C190.614 281.935 191.749 281.913 192.847 282.021C193.934 281.94 195.14 281.878 196.106 281.565L197.56 281.083C198.156 280.907 198.52 280.68 199.005 280.48C199.92 280.069 200.821 279.666 201.708 279.266C203.486 278.466 205.209 277.69 206.879 276.936C210.211 275.424 213.321 274.01 216.164 272.72C217.348 272.174 218.476 271.652 219.565 271.152C219.571 271.287 219.581 271.525 219.6 271.979C219.638 272.612 219.633 273.558 219.84 274.756C220.159 277.152 220.96 280.667 223.11 284.523C225.241 288.348 228.791 292.523 233.986 295.395C239.108 298.258 245.838 299.823 252.644 298.555C259.444 297.358 265.362 293.748 269.206 289.17C273.142 284.647 275.103 279.412 275.761 274.994C276.465 270.544 275.955 266.877 275.375 264.471C275.146 263.249 274.774 262.343 274.582 261.713C274.375 261.088 274.264 260.759 274.264 260.759C274.264 260.759 274.356 261.099 274.528 261.743C274.69 262.389 275.006 263.333 275.168 264.568C275.61 267.004 275.909 270.687 275.019 275.029C274.175 279.339 272.047 284.349 268.108 288.567C266.158 290.676 263.798 292.591 261.084 294.099C258.36 295.576 255.247 296.663 252.067 297.182C248.843 297.712 245.623 297.652 242.601 297.122C239.586 296.549 236.791 295.503 234.318 294.178C229.322 291.531 225.845 287.61 223.641 284.009C221.429 280.359 220.482 276.971 220.054 274.662C219.781 273.502 219.738 272.577 219.66 271.955C219.611 271.509 219.587 271.276 219.571 271.144C227.202 267.624 232.381 265.236 233.997 264.493C235.227 266.907 237.312 268.808 239.68 269.93C242.232 271.13 245.091 271.471 247.875 270.887L249.739 270.284C250.475 270.052 250.972 269.77 251.595 269.514C252.779 268.994 253.96 268.475 255.134 267.959C273.876 259.688 290.802 252.22 305.042 245.936C312.155 242.781 318.591 239.92 324.253 237.408C327.083 236.151 329.715 234.978 332.14 233.899C334.625 232.95 336.699 231.576 338.121 229.93C340.945 226.544 341.223 222.832 340.888 220.661ZM170.315 283.53C168.16 284.433 165.803 285.423 163.28 286.48C162.021 287.013 160.718 287.562 159.377 288.127C158.706 288.411 158.029 288.697 157.341 288.989C156.777 289.257 155.946 289.446 155.247 289.684C152.466 290.411 149.265 290.036 146.564 288.419C145.877 288.051 145.318 287.472 144.673 287.01C144.107 286.458 143.63 285.81 143.093 285.215L141.914 283.081L140.878 280.683C139.403 277.536 139.022 274.28 140.055 271.312C141.021 268.364 143.187 265.999 145.734 264.76C151.104 262.246 156.078 260.102 160.151 258.23C166.614 255.278 171.052 253.25 172.641 252.525L172.837 254.299L173.339 255.913C173.687 257.138 174.205 258.052 174.637 259.147C175.543 261.256 176.468 263.397 177.402 265.566C178.343 267.732 179.271 269.873 180.188 271.988C180.687 273.045 181.022 274.086 181.647 275.138L182.529 276.698L183.665 278.014C181.993 278.704 177.205 280.68 170.315 283.53Z" fill="white"/>
<path d="M211.577 361.627C194.179 395.868 181 423 181 423C181 423 195.681 396.09 213.078 361.85C230.476 327.606 244 299 244 299C244 299 228.972 327.384 211.577 361.627Z" fill="white"/>
<path d="M244 361.875C244 396.115 244.375 423 244.375 423C244.375 423 245 395.678 245 361.436C245 327.193 244.375 299 244.375 299C244.375 299 244 327.635 244 361.875Z" fill="white"/>
<path d="M244 299C244 299 258.292 327.88 275.964 362.12C293.637 396.362 308 423 308 423C308 423 294.713 395.266 277.04 361.026C259.368 326.783 244 299 244 299Z" fill="white"/>
<path d="M701.332 66.8C701.432 67.2 701.832 67.5 702.232 67.5H703.032C703.382 67.5 703.732 67.25 703.882 66.95L712.982 46.5H713.132L722.282 66.95C722.432 67.25 722.782 67.5 723.132 67.5H723.932C724.332 67.5 724.732 67.2 724.832 66.8L734.282 33.2C734.482 32.5 734.082 32 733.382 32H727.532C727.132 32 726.732 32.35 726.632 32.7L722.332 49.65H722.132L714.382 32.05C714.282 31.75 713.982 31.5 713.532 31.5H712.632C712.232 31.5 711.932 31.75 711.782 32.05L704.032 49.65H703.832L699.532 32.7C699.432 32.35 699.032 32 698.632 32H692.782C692.082 32 691.682 32.5 691.882 33.2L701.332 66.8ZM734.545 67H740.045C741.045 67 741.595 66.4 741.845 65.8L743.645 61.8H757.245L759.045 65.75C759.495 66.7 759.895 67 760.795 67H766.345C767.095 67 767.495 66.35 767.195 65.7L751.545 32.05C751.395 31.75 751.045 31.5 750.695 31.5H750.195C749.845 31.5 749.495 31.75 749.345 32.05L733.695 65.7C733.395 66.35 733.795 67 734.545 67ZM746.645 55L750.395 46.75H750.445L754.245 55H746.645ZM771.3 66.05C771.3 66.55 771.75 67 772.25 67H778.2C778.75 67 779.15 66.55 779.15 66.05V47.4H779.2L798.95 67.25C799.05 67.35 799.45 67.5 799.6 67.5H800.4C800.9 67.5 801.35 67.1 801.35 66.6V32.95C801.35 32.45 800.9 32 800.4 32H794.4C793.85 32 793.45 32.45 793.45 32.95V50.7H793.4L773.45 31.5H772.2C771.7 31.5 771.25 31.9 771.25 32.4L771.3 66.05ZM814.472 66.05C814.472 66.55 814.922 67 815.422 67H821.422C821.922 67 822.372 66.55 822.372 66.05V39.35H829.522C830.072 39.35 830.472 38.9 830.472 38.4V32.95C830.472 32.45 830.072 32 829.522 32H807.322C806.772 32 806.372 32.45 806.372 32.95V38.4C806.372 38.9 806.772 39.35 807.322 39.35H814.472V66.05ZM850.995 66.05C850.995 66.55 851.445 67 851.945 67H857.945C858.445 67 858.895 66.55 858.895 66.05V39.35H866.045C866.595 39.35 866.995 38.9 866.995 38.4V32.95C866.995 32.45 866.595 32 866.045 32H843.845C843.295 32 842.895 32.45 842.895 32.95V38.4C842.895 38.9 843.295 39.35 843.845 39.35H850.995V66.05ZM869.238 49.55C869.238 59.55 877.188 67.5 887.188 67.5C897.188 67.5 905.188 59.55 905.188 49.55C905.188 39.55 897.188 31.5 887.188 31.5C877.188 31.5 869.238 39.55 869.238 49.55ZM877.238 49.55C877.238 44.05 881.738 39.5 887.188 39.5C892.688 39.5 897.188 44.05 897.188 49.55C897.188 55 892.688 59.5 887.188 59.5C881.738 59.5 877.238 55 877.238 49.55ZM919.727 49.55C919.727 59.55 927.777 67.5 937.777 67.5C942.227 67.5 946.527 65.95 949.927 62.65C950.277 62.3 950.327 61.65 949.977 61.3L946.077 57.15C945.777 56.8 945.127 56.8 944.777 57.1C942.977 58.65 940.427 59.5 938.077 59.5C932.427 59.5 928.227 54.9 928.227 49.35C928.227 43.75 932.377 39.05 938.027 39.05C940.477 39.05 942.927 39.95 944.777 41.6C945.127 41.95 945.677 41.95 946.027 41.6L949.927 37.55C950.327 37.15 950.327 36.55 949.877 36.15C946.477 33.05 942.777 31.5 937.777 31.5C927.777 31.5 919.727 39.55 919.727 49.55ZM953.223 49.55C953.223 59.55 961.173 67.5 971.173 67.5C981.173 67.5 989.173 59.55 989.173 49.55C989.173 39.55 981.173 31.5 971.173 31.5C961.173 31.5 953.223 39.55 953.223 49.55ZM961.223 49.55C961.223 44.05 965.723 39.5 971.173 39.5C976.673 39.5 981.173 44.05 981.173 49.55C981.173 55 976.673 59.5 971.173 59.5C965.723 59.5 961.223 55 961.223 49.55ZM995.226 66.05C995.226 66.55 995.676 67 996.176 67H1002.13C1002.68 67 1003.08 66.55 1003.08 66.05V47.4H1003.13L1022.88 67.25C1022.98 67.35 1023.38 67.5 1023.53 67.5H1024.33C1024.83 67.5 1025.28 67.1 1025.28 66.6V32.95C1025.28 32.45 1024.83 32 1024.33 32H1018.33C1017.78 32 1017.38 32.45 1017.38 32.95V50.7H1017.33L997.376 31.5H996.126C995.626 31.5 995.176 31.9 995.176 32.4L995.226 66.05ZM1038.4 66.05C1038.4 66.55 1038.85 67 1039.35 67H1045.35C1045.85 67 1046.3 66.55 1046.3 66.05V39.35H1053.45C1054 39.35 1054.4 38.9 1054.4 38.4V32.95C1054.4 32.45 1054 32 1053.45 32H1031.25C1030.7 32 1030.3 32.45 1030.3 32.95V38.4C1030.3 38.9 1030.7 39.35 1031.25 39.35H1038.4V66.05ZM1053.93 67H1059.43C1060.43 67 1060.98 66.4 1061.23 65.8L1063.03 61.8H1076.63L1078.43 65.75C1078.88 66.7 1079.28 67 1080.18 67H1085.73C1086.48 67 1086.88 66.35 1086.58 65.7L1070.93 32.05C1070.78 31.75 1070.43 31.5 1070.08 31.5H1069.58C1069.23 31.5 1068.88 31.75 1068.73 32.05L1053.08 65.7C1052.78 66.35 1053.18 67 1053.93 67ZM1066.03 55L1069.78 46.75H1069.83L1073.63 55H1066.03ZM1087.84 49.55C1087.84 59.55 1095.89 67.5 1105.89 67.5C1110.34 67.5 1114.64 65.95 1118.04 62.65C1118.39 62.3 1118.44 61.65 1118.09 61.3L1114.19 57.15C1113.89 56.8 1113.24 56.8 1112.89 57.1C1111.09 58.65 1108.54 59.5 1106.19 59.5C1100.54 59.5 1096.34 54.9 1096.34 49.35C1096.34 43.75 1100.49 39.05 1106.14 39.05C1108.59 39.05 1111.04 39.95 1112.89 41.6C1113.24 41.95 1113.79 41.95 1114.14 41.6L1118.04 37.55C1118.44 37.15 1118.44 36.55 1117.99 36.15C1114.59 33.05 1110.89 31.5 1105.89 31.5C1095.89 31.5 1087.84 39.55 1087.84 49.55ZM1128.53 66.05C1128.53 66.55 1128.98 67 1129.48 67H1135.48C1135.98 67 1136.43 66.55 1136.43 66.05V39.35H1143.58C1144.13 39.35 1144.53 38.9 1144.53 38.4V32.95C1144.53 32.45 1144.13 32 1143.58 32H1121.38C1120.83 32 1120.43 32.45 1120.43 32.95V38.4C1120.43 38.9 1120.83 39.35 1121.38 39.35H1128.53V66.05ZM1158.36 65.9C1158.26 66.55 1158.71 67 1159.31 67H1165.21C1165.71 67 1166.11 66.6 1166.16 66.2L1168.36 50.75H1168.46L1176.91 66.95C1177.06 67.25 1177.46 67.5 1177.76 67.5H1178.66C1178.91 67.5 1179.36 67.25 1179.51 66.95L1187.91 50.75H1188.01L1190.26 66.2C1190.31 66.6 1190.76 67 1191.21 67H1197.11C1197.71 67 1198.16 66.55 1198.06 65.9L1192.41 32.3C1192.36 31.85 1191.91 31.5 1191.51 31.5H1190.71C1190.46 31.5 1190.01 31.7 1189.86 32L1178.26 53.6H1178.16L1166.56 32C1166.41 31.7 1165.96 31.5 1165.71 31.5H1164.91C1164.51 31.5 1164.06 31.85 1164.01 32.3L1158.36 65.9ZM1204.45 66.05C1204.45 66.55 1204.85 67 1205.4 67H1226.1C1226.65 67 1227.05 66.55 1227.05 66.05V60.6C1227.05 60.1 1226.65 59.65 1226.1 59.65H1212.25V52.9H1223.65C1224.15 52.9 1224.6 52.5 1224.6 51.95V46.5C1224.6 46 1224.15 45.55 1223.65 45.55H1212.25V39.35H1226.1C1226.65 39.35 1227.05 38.9 1227.05 38.4V32.95C1227.05 32.45 1226.65 32 1226.1 32H1205.4C1204.85 32 1204.45 32.45 1204.45 32.95V66.05ZM1237.15 53.4H1242.5C1243 53.4 1243.45 53 1243.45 52.45C1243.45 47.05 1250.95 46.85 1250.95 40.25C1250.95 35.2 1246.05 31.5 1240.75 31.5C1234.3 31.5 1230.6 35.9 1230.6 35.9C1230.25 36.25 1230.2 36.85 1230.6 37.2L1233.65 40.2C1234.9 41.3 1235.85 38.15 1239.35 38.15C1241.5 38.15 1243.1 39.55 1243.1 41.1C1243.1 44.3 1236.2 46.15 1236.2 50.35V52.45C1236.2 53 1236.65 53.4 1237.15 53.4ZM1235.1 62.8C1235.1 65.35 1237.25 67.5 1239.8 67.5C1242.4 67.5 1244.6 65.35 1244.6 62.8C1244.6 60.2 1242.4 58 1239.8 58C1237.25 58 1235.1 60.2 1235.1 62.8ZM1269.64 54.45C1271.84 54.45 1273.64 52.7 1273.64 50.5C1273.64 48.3 1271.84 46.5 1269.64 46.5C1267.44 46.5 1265.69 48.3 1265.69 50.5C1265.69 52.7 1267.44 54.45 1269.64 54.45ZM1265.69 63.55C1265.69 65.75 1267.44 67.5 1269.64 67.5C1271.84 67.5 1273.64 65.75 1273.64 63.55C1273.64 61.35 1271.84 59.55 1269.64 59.55C1267.44 59.55 1265.69 61.35 1265.69 63.55ZM1277.58 65.75L1277.78 70.05C1277.78 70.55 1278.23 70.95 1278.78 70.95C1284.48 70.55 1291.48 67.45 1291.48 51.25C1291.48 35.05 1284.48 31.9 1278.78 31.6C1278.23 31.55 1277.78 32 1277.78 32.5L1277.58 36.75C1277.58 37.1 1277.88 37.6 1278.23 37.7C1282.43 39 1283.98 43.7 1283.98 51.25C1283.98 58.85 1282.43 63.5 1278.23 64.85C1277.93 64.95 1277.58 65.4 1277.58 65.75Z" fill="#2F2A3D"/>
</svg>
