<svg width="85" height="85" viewBox="0 0 85 85" fill="none" xmlns="http://www.w3.org/2000/svg">
<circle cx="42.5" cy="42.5" r="42.5" fill="white"/>
<path fill-rule="evenodd" clip-rule="evenodd" d="M66.3524 62.5274V45.9354C66.3524 37.0458 61.6066 32.9092 55.2797 32.9092C50.1741 32.9092 47.8862 35.7184 46.6112 37.689V33.5892H36.992C37.1195 36.3049 36.992 62.5274 36.992 62.5274H46.6112V46.3661C46.6112 45.5033 46.6735 44.6392 46.9285 44.0215C47.6227 42.2932 49.2051 40.5039 51.8613 40.5039C55.3435 40.5039 56.7347 43.1573 56.7347 47.0461V62.5288L66.3524 62.5274ZM26.8586 29.6395C30.2118 29.6395 32.3014 27.4153 32.3014 24.6373C32.2391 21.7997 30.2118 19.6393 26.9223 19.6393C23.6328 19.6393 21.4809 21.7983 21.4809 24.6373C21.4809 27.4153 23.5691 29.6395 26.7977 29.6395H26.8586ZM42.5 85C19.0287 85 0 65.9713 0 42.5C0 19.0272 19.0287 0 42.5 0C65.9713 0 85 19.0272 85 42.5C85 65.9713 65.9713 85 42.5 85ZM31.6682 62.5274V33.5892H22.0504V62.5274H31.6682Z" fill="#EC6C6D"/>
</svg>
