<svg width="85" height="85" viewBox="0 0 85 85" fill="none" xmlns="http://www.w3.org/2000/svg">
<circle cx="42.5" cy="42.5" r="42.5" fill="white"/>
<path d="M42.5 0C19.0254 0 0 19.0254 0 42.5C0 65.9746 19.0254 85 42.5 85C65.9746 85 85 65.9746 85 42.5C85 19.0254 65.9746 0 42.5 0ZM66.7881 24.0723L62.9199 27.7744C62.5713 28.0234 62.4219 28.4551 62.4883 28.8535V56.1465C62.4219 56.5615 62.5879 56.9766 62.9199 57.2256L66.7217 60.9277V61.7578H47.6631V60.9775L51.5811 57.1758C51.9629 56.7939 51.9629 56.6777 51.9629 56.0967V34.0166L41.0557 61.6748H39.5781L26.8945 34.0166V52.5605C26.7783 53.3408 27.0605 54.1211 27.6084 54.6855L32.7051 60.8613V61.6914H18.2119V60.8613L23.3086 54.6855C23.8564 54.1211 24.1055 53.3408 23.9727 52.5605V31.1113C24.0391 30.5137 23.8066 29.9326 23.3584 29.5342L18.8262 24.0723V23.2422H32.9209L43.7949 47.0986L53.374 23.2588H66.8047V24.0723H66.7881Z" fill="#EC6C6D"/>
</svg>
