<svg width="356" height="271" viewBox="0 0 356 271" fill="none" xmlns="http://www.w3.org/2000/svg">
<path d="M90.0341 138.408C90.0353 138.46 90.2024 141.252 90.505 146.583C90.6177 149.28 90.8143 152.605 91.5723 156.484C92.2173 160.375 92.7461 164.915 94.2594 169.825C96.4973 179.848 101.285 191.649 108.645 204.282C116.108 216.844 126.913 230.012 141.701 241.221C156.419 252.406 175.136 261.605 196.677 265.813C218.243 269.515 242.401 268.763 265.756 260.15C289.029 251.791 311.24 236.048 327.245 214.093C335.412 203.269 341.878 190.823 346.215 177.464C350.504 164.316 353.346 149.584 353.022 135.508C352.887 120.93 350.669 106.765 346.298 93.3133C341.685 79.9802 335.124 67.5905 327.085 56.5707C310.802 34.6493 288.464 18.6471 264.812 10.476C253.103 6.00337 240.844 4.18153 229.03 3.16217C223.242 3.11721 217.34 2.62931 211.604 3.36073C208.743 3.61707 205.887 3.7597 203.089 4.102C200.312 4.61857 197.543 5.1262 194.818 5.62412C172.897 9.78491 154.062 19.826 139.344 31.5395C124.549 43.3334 113.876 57.0617 106.613 70.1282C99.3505 83.2209 95.0696 95.5741 93.0703 105.91C91.7557 111.024 91.2761 115.674 90.8522 119.702C90.2535 123.708 90.1125 127.136 90.1749 129.922C90.0722 135.445 90.0329 138.356 90.0341 138.408L90.0337 138.39C90.0337 138.39 90.0339 138.399 90.0341 138.408L90.0343 138.417L90.0341 138.408ZM90.3557 129.822C90.3533 126.991 90.6153 123.517 91.292 119.492C91.7762 115.436 92.4387 110.782 93.8662 105.648C96.1705 95.3135 100.67 82.9817 108.32 70.0899C115.919 57.2256 126.922 43.8306 141.884 32.5047C156.714 21.112 175.692 12.0025 197.321 8.42483C208.131 6.25172 219.32 6.21918 231.126 6.88054C242.537 8.17104 254.355 10.5095 265.758 14.9628C277.059 19.5493 288.241 25.3966 298.301 33.3046C308.309 41.2225 317.435 50.6279 325.154 61.3928C340.126 83.1253 349.207 110.328 348.291 138.279C348.1 166.309 337.732 192.856 322.076 213.676C314.054 223.999 304.792 232.995 294.675 240.43C284.359 247.571 273.446 253.32 262.172 257.338C239.642 265.025 215.974 266.272 195.343 262.261C174.501 258.16 156.306 249.342 141.928 238.525C127.48 227.702 116.841 214.949 109.412 202.754C102.138 190.459 97.1844 179.012 94.8382 169.21C93.2406 164.423 92.7135 159.962 91.9485 156.161C91.1139 152.362 90.8837 149.091 90.7024 146.448C90.2712 141.207 90.0351 138.452 90.0343 138.417C90.0331 138.364 90.15 135.417 90.3557 129.822Z" fill="#EC6C6D"/>
<path d="M17.4641 155.964C17.4641 156.464 17.8641 156.914 18.4141 156.914H24.3141C24.8141 156.914 25.2641 156.464 25.2641 155.964V144.214H30.5141C36.6141 144.214 41.6641 139.164 41.6641 132.964C41.6641 126.914 36.6141 121.914 30.4641 121.914H18.4141C17.8641 121.914 17.4641 122.364 17.4641 122.864V155.964ZM25.2641 136.914V129.264H30.0141C32.1641 129.264 33.9641 130.864 33.9641 132.964C33.9641 135.214 32.1641 136.914 30.0141 136.914H25.2641ZM46.7609 155.964C46.7609 156.464 47.1609 156.914 47.7109 156.914H53.6609C54.1609 156.914 54.6109 156.464 54.6109 155.964V143.214H58.0609L64.7109 156.464C64.8109 156.664 65.1109 156.914 65.5109 156.914H72.1609C73.0109 156.914 73.3609 156.114 73.0109 155.464L66.1609 142.764C70.5109 141.014 73.5609 137.314 73.5609 132.714C73.5609 126.764 68.6609 121.914 62.6609 121.914H47.7109C47.1609 121.914 46.7609 122.364 46.7609 122.864V155.964ZM54.6109 136.864V129.064H62.0109C64.0609 129.064 65.8109 130.764 65.8109 132.864C65.8109 134.964 64.0609 136.864 62.0109 136.864H54.6109ZM77.707 139.464C77.707 149.464 85.657 157.414 95.657 157.414C105.657 157.414 113.657 149.464 113.657 139.464C113.657 129.464 105.657 121.414 95.657 121.414C85.657 121.414 77.707 129.464 77.707 139.464ZM85.707 139.464C85.707 133.964 90.207 129.414 95.657 129.414C101.157 129.414 105.657 133.964 105.657 139.464C105.657 144.914 101.157 149.414 95.657 149.414C90.207 149.414 85.707 144.914 85.707 139.464ZM114.124 153.764C114.974 154.814 117.374 157.414 121.724 157.414C127.574 157.414 132.474 153.414 132.474 146.464V122.864C132.474 122.364 132.074 121.914 131.524 121.914H125.424C124.874 121.914 124.474 122.364 124.474 122.864V146.414C124.474 148.914 122.924 150.214 121.524 150.214C120.174 150.214 119.574 149.764 118.974 149.164C118.574 148.764 118.024 148.814 117.624 149.164L114.224 152.514C113.924 152.864 113.874 153.364 114.124 153.764ZM140.316 155.964C140.316 156.464 140.716 156.914 141.266 156.914H161.966C162.516 156.914 162.916 156.464 162.916 155.964V150.514C162.916 150.014 162.516 149.564 161.966 149.564H148.116V142.814H159.516C160.016 142.814 160.466 142.414 160.466 141.864V136.414C160.466 135.914 160.016 135.464 159.516 135.464H148.116V129.264H161.966C162.516 129.264 162.916 128.814 162.916 128.314V122.864C162.916 122.364 162.516 121.914 161.966 121.914H141.266C140.716 121.914 140.316 122.364 140.316 122.864V155.964ZM167.063 139.464C167.063 149.464 175.113 157.414 185.113 157.414C189.563 157.414 193.863 155.864 197.263 152.564C197.613 152.214 197.663 151.564 197.313 151.214L193.413 147.064C193.113 146.714 192.463 146.714 192.113 147.014C190.312 148.564 187.763 149.414 185.413 149.414C179.763 149.414 175.563 144.814 175.563 139.264C175.563 133.664 179.713 128.964 185.363 128.964C187.813 128.964 190.263 129.864 192.113 131.514C192.463 131.864 193.013 131.864 193.363 131.514L197.263 127.464C197.663 127.064 197.663 126.464 197.213 126.064C193.813 122.964 190.113 121.414 185.113 121.414C175.113 121.414 167.063 129.464 167.063 139.464ZM207.755 155.964C207.755 156.464 208.205 156.914 208.705 156.914H214.705C215.205 156.914 215.655 156.464 215.655 155.964V129.264H222.805C223.355 129.264 223.755 128.814 223.755 128.314V122.864C223.755 122.364 223.355 121.914 222.805 121.914H200.605C200.055 121.914 199.655 122.364 199.655 122.864V128.314C199.655 128.814 200.055 129.264 200.605 129.264H207.755V155.964ZM226.993 153.564C228.143 154.714 231.743 157.414 238.243 157.414C245.593 157.414 250.043 152.214 250.043 147.064C250.043 140.264 243.843 137.214 239.943 135.664C235.993 134.064 234.493 132.664 234.493 130.814C234.493 129.464 235.843 128.264 237.643 128.264C240.693 128.264 244.343 131.014 244.793 131.264C245.243 131.614 246.143 131.164 246.493 130.614L249.043 126.764C249.243 126.414 249.343 125.514 248.743 125.164C247.243 124.064 243.243 121.414 238.043 121.414C230.343 121.414 226.493 126.414 226.493 131.364C226.493 137.364 231.893 140.714 236.193 142.414C239.593 143.764 241.343 145.364 241.343 147.464C241.343 149.214 239.893 150.464 237.893 150.464C234.593 150.464 230.993 147.814 230.793 147.714C230.443 147.464 229.493 147.364 229.093 148.014L226.743 152.164C226.343 152.864 226.493 153.064 226.993 153.564Z" fill="white"/>
</svg>
