<svg width="140" height="140" viewBox="0 0 140 140" fill="none" xmlns="http://www.w3.org/2000/svg">
<path d="M70 140C108.66 140 140 108.66 140 70C140 31.3401 108.66 0 70 0C31.3401 0 0 31.3401 0 70C0 108.66 31.3401 140 70 140Z" fill="#EC6C6D"/>
<path d="M21.985 79.6035C21.985 79.8122 22.152 80 22.3816 80H24.8442C25.0529 80 25.2407 79.8122 25.2407 79.6035V74.6991H27.432C29.9781 74.6991 32.0859 72.5913 32.0859 70.0035C32.0859 67.4783 29.9781 65.3913 27.4111 65.3913H22.3816C22.152 65.3913 21.985 65.5791 21.985 65.7878V79.6035ZM25.2407 71.6522V68.4591H27.2233C28.1207 68.4591 28.872 69.127 28.872 70.0035C28.872 70.9426 28.1207 71.6522 27.2233 71.6522H25.2407ZM34.2133 79.6035C34.2133 79.8122 34.3803 80 34.6098 80H37.0933C37.302 80 37.4898 79.8122 37.4898 79.6035V74.2818H38.9298L41.7055 79.8122C41.7472 79.8957 41.8724 80 42.0394 80H44.815C45.1698 80 45.3159 79.6661 45.1698 79.3948L42.3107 74.0939C44.1264 73.3635 45.3994 71.8191 45.3994 69.8991C45.3994 67.4157 43.3542 65.3913 40.8498 65.3913H34.6098C34.3803 65.3913 34.2133 65.5791 34.2133 65.7878V79.6035ZM37.4898 71.6313V68.3757H40.5785C41.4342 68.3757 42.1646 69.0852 42.1646 69.9618C42.1646 70.8383 41.4342 71.6313 40.5785 71.6313H37.4898ZM47.1299 72.7165C47.1299 76.8904 50.4482 80.2087 54.6221 80.2087C58.796 80.2087 62.1351 76.8904 62.1351 72.7165C62.1351 68.5426 58.796 65.1826 54.6221 65.1826C50.4482 65.1826 47.1299 68.5426 47.1299 72.7165ZM50.469 72.7165C50.469 70.4209 52.3473 68.5218 54.6221 68.5218C56.9177 68.5218 58.796 70.4209 58.796 72.7165C58.796 74.9913 56.9177 76.8696 54.6221 76.8696C52.3473 76.8696 50.469 74.9913 50.469 72.7165ZM62.3301 78.6852C62.6849 79.1235 63.6866 80.2087 65.5023 80.2087C67.944 80.2087 69.9892 78.5391 69.9892 75.6383V65.7878C69.9892 65.5791 69.8223 65.3913 69.5927 65.3913H67.0466C66.817 65.3913 66.6501 65.5791 66.6501 65.7878V75.6174C66.6501 76.6609 66.0031 77.2035 65.4188 77.2035C64.8553 77.2035 64.6049 77.0157 64.3544 76.7652C64.1875 76.5983 63.9579 76.6191 63.791 76.7652L62.3718 78.1635C62.2466 78.3096 62.2257 78.5183 62.3301 78.6852ZM73.2622 79.6035C73.2622 79.8122 73.4291 80 73.6587 80H82.2987C82.5283 80 82.6952 79.8122 82.6952 79.6035V77.3287C82.6952 77.12 82.5283 76.9322 82.2987 76.9322H76.5178V74.1148H81.2761C81.4848 74.1148 81.6726 73.9478 81.6726 73.7183V71.4435C81.6726 71.2348 81.4848 71.047 81.2761 71.047H76.5178V68.4591H82.2987C82.5283 68.4591 82.6952 68.2713 82.6952 68.0626V65.7878C82.6952 65.5791 82.5283 65.3913 82.2987 65.3913H73.6587C73.4291 65.3913 73.2622 65.5791 73.2622 65.7878V79.6035ZM84.4261 72.7165C84.4261 76.8904 87.7861 80.2087 91.96 80.2087C93.8174 80.2087 95.6122 79.5618 97.0313 78.1844C97.1774 78.0383 97.1983 77.767 97.0522 77.6209L95.4244 75.8887C95.2991 75.7426 95.0278 75.7426 94.8817 75.8678C94.1304 76.5148 93.0661 76.8696 92.0852 76.8696C89.727 76.8696 87.9739 74.9496 87.9739 72.6331C87.9739 70.2957 89.7061 68.3339 92.0644 68.3339C93.087 68.3339 94.1096 68.7096 94.8817 69.3983C95.0278 69.5444 95.2574 69.5444 95.4035 69.3983L97.0313 67.7078C97.1983 67.5409 97.1983 67.2904 97.0104 67.1235C95.5913 65.8296 94.047 65.1826 91.96 65.1826C87.7861 65.1826 84.4261 68.5426 84.4261 72.7165ZM101.41 79.6035C101.41 79.8122 101.598 80 101.807 80H104.311C104.52 80 104.708 79.8122 104.708 79.6035V68.4591H107.692C107.922 68.4591 108.089 68.2713 108.089 68.0626V65.7878C108.089 65.5791 107.922 65.3913 107.692 65.3913H98.4261C98.1965 65.3913 98.0296 65.5791 98.0296 65.7878V68.0626C98.0296 68.2713 98.1965 68.4591 98.4261 68.4591H101.41V79.6035ZM109.441 78.6018C109.921 79.0818 111.423 80.2087 114.137 80.2087C117.204 80.2087 119.062 78.0383 119.062 75.8887C119.062 73.0505 116.474 71.7774 114.846 71.1304C113.197 70.4626 112.571 69.8783 112.571 69.1061C112.571 68.5426 113.135 68.0418 113.886 68.0418C115.159 68.0418 116.683 69.1896 116.87 69.2939C117.058 69.44 117.434 69.2522 117.58 69.0226L118.644 67.4157C118.728 67.2696 118.77 66.8939 118.519 66.7478C117.893 66.2887 116.223 65.1826 114.053 65.1826C110.839 65.1826 109.232 67.2696 109.232 69.3357C109.232 71.84 111.486 73.2383 113.281 73.9478C114.7 74.5113 115.43 75.1791 115.43 76.0557C115.43 76.7861 114.825 77.3078 113.99 77.3078C112.613 77.3078 111.11 76.2018 111.027 76.16C110.881 76.0557 110.484 76.0139 110.317 76.2852L109.337 78.0174C109.17 78.3096 109.232 78.3931 109.441 78.6018Z" fill="#2F2A3D"/>
</svg>
