<svg width="892" height="893" viewBox="0 0 892 893" fill="none" xmlns="http://www.w3.org/2000/svg">
<path d="M592.844 446.157C592.844 446.098 592.726 442.936 592.518 436.899C592.459 433.846 592.321 430.082 591.56 425.676C590.928 421.259 590.444 416.112 588.853 410.52C586.571 399.128 581.443 385.662 573.42 371.187C565.279 356.792 553.364 341.626 536.884 328.575C520.483 315.553 499.498 304.675 475.183 299.37C450.829 294.637 423.422 294.874 396.726 304.023C370.129 312.886 344.55 330.126 325.847 354.549C316.313 366.583 308.666 380.494 303.41 395.492C298.213 410.253 294.617 426.841 294.626 442.768C294.409 459.258 296.563 475.332 301.177 490.656C306.067 505.852 313.191 520.03 322.024 532.696C339.926 557.9 364.844 576.563 391.45 586.403C404.611 591.758 418.462 594.13 431.83 595.582C438.39 595.78 445.069 596.481 451.59 595.799C454.841 595.582 458.081 595.493 461.263 595.177C464.424 594.663 467.576 594.159 470.678 593.665C495.635 589.516 517.243 578.638 534.226 565.764C551.299 552.802 563.748 537.547 572.314 522.954C580.88 508.332 586.047 494.47 588.576 482.831C590.197 477.081 590.859 471.835 591.441 467.29C592.222 462.775 592.469 458.902 592.469 455.75C592.726 449.506 592.844 446.216 592.844 446.157V446.177C592.844 446.177 592.844 446.167 592.844 446.157V446.147V446.157ZM592.261 455.859C592.192 459.06 591.807 462.982 590.938 467.517C590.285 472.092 589.416 477.338 587.667 483.108C584.792 494.737 579.378 508.569 570.377 522.954C561.436 537.31 548.622 552.179 531.371 564.608C514.269 577.116 492.523 586.937 467.912 590.434C455.601 592.618 442.915 592.371 429.548 591.324C416.644 589.575 403.306 586.631 390.492 581.305C377.796 575.832 365.268 568.936 354.065 559.737C342.92 550.529 332.813 539.661 324.336 527.291C307.915 502.335 298.312 471.341 300.06 439.755C300.989 408.06 313.418 378.301 331.696 355.152C341.053 343.681 351.782 333.742 363.441 325.591C375.316 317.776 387.834 311.552 400.718 307.293C426.455 299.172 453.319 298.362 476.606 303.42C500.13 308.588 520.533 319.021 536.558 331.618C552.662 344.225 564.4 358.916 572.511 372.897C580.445 386.986 585.77 400.057 588.181 411.201C589.871 416.655 590.355 421.714 591.125 426.031C591.975 430.349 592.153 434.054 592.291 437.047C592.647 442.985 592.844 446.107 592.844 446.147C592.844 446.206 592.637 449.536 592.261 455.859Z" fill="white"/>
<path d="M891.092 426.693C890.371 416.487 890.46 406.261 889.057 396.243C879.048 315.948 849.616 242.095 806.173 184.525C763.482 126.43 710.505 82.5036 656.402 53.743C602.141 25.0317 547.713 9.79673 499.251 4.77769C496.228 4.35285 493.254 3.92801 490.29 3.50317C487.296 3.36485 484.332 3.22653 481.408 3.08821C475.539 2.82145 469.769 2.54481 464.118 2.28793C458.466 2.03105 452.924 1.76429 447.49 1.51729C442.036 1.37897 436.721 1.98165 431.504 2.16937C421.081 2.74241 411.112 3.28581 401.597 3.80945C392.142 4.93577 383.22 6.59561 374.743 7.85037C366.306 9.40153 358.165 9.94493 350.854 12.1185C343.493 14.0451 336.617 15.8433 330.224 17.5229C323.842 19.2222 317.953 20.7932 312.569 22.2258C307.332 24.1721 302.59 25.9308 298.351 27.5116C284.085 32.8171 275.588 35.9787 273.217 36.8581C270.282 29.3394 264.986 20.7042 255.996 13.146C249.811 7.65277 241.403 3.82921 231.79 1.15173C222.621 -0.172195 211.299 -1.15031 200.875 2.90049C190.402 6.35849 179.851 12.8101 172.599 22.7593C170.445 24.9823 169.012 27.719 167.54 30.4756C166.058 33.2222 164.339 35.8602 163.588 39.081C162.709 42.1636 161.434 45.3351 160.94 48.4275C160.634 51.4903 160.318 54.5729 160.002 57.6752C159.923 71.1614 163.973 83.4719 170.978 93.6977C171.512 94.4585 172.174 95.071 172.747 95.7923C169.882 98.1239 163.509 103.311 153.767 111.245C140.666 122.913 121.4 140.41 100.158 166.276C78.9856 192.102 55.9553 226.416 36.5806 269.987C27.2539 291.9 18.8361 316.008 12.2264 342.259C6.00201 368.569 1.72397 396.994 0.281492 427.029C-1.74391 486.971 6.92085 553.809 34.081 619.59C48.9306 651.73 65.5587 684.808 89.1126 714.567C99.8027 730.266 113.388 743.94 126.35 758.483C132.911 765.686 140.617 771.841 147.77 778.639C155.042 785.327 162.274 792.174 170.524 797.885C178.527 803.882 186.579 809.938 194.69 816.024C203.325 821.33 212.01 826.665 220.754 832.03C225.17 834.638 229.438 837.543 234.023 839.904L247.993 846.672C257.428 850.98 266.528 856.216 276.388 859.822C315.276 875.877 357.305 885.649 400.827 891.014C444.032 894.531 489.193 892.98 533.555 884.562C577.797 875.097 621.338 859.407 662.202 837.158C743.179 791.463 808.426 722.273 846.336 642.877L853.469 628.048L857.016 620.657L859.861 612.991C863.596 602.755 867.311 592.569 871.016 582.412C874.355 572.166 876.549 561.605 879.345 551.29L883.257 535.778L885.648 519.99C887.091 509.488 889.116 499.064 890.045 488.67C890.558 478.257 891.072 467.903 891.566 457.608C892.495 447.362 891.606 436.82 891.092 426.693ZM165.366 56.9441C165.683 53.8517 166.009 50.7691 166.325 47.7063C167.184 44.9794 168.034 42.2624 168.884 39.575C169.516 36.8185 171.433 34.4572 172.608 31.8983C173.3 30.6633 173.893 29.3591 174.664 28.1834L177.341 24.923C180.552 20.2695 185.057 17.0585 189.148 13.561C193.88 11.0811 198.237 7.92941 203.306 6.80309C213.107 3.13761 222.848 3.61185 232.224 4.96541C240.78 7.22793 248.912 10.5377 254.859 15.6259C267.18 25.2984 272.91 37.3916 275.025 45.7896C276.378 49.9589 276.2 53.4564 276.675 55.7091C276.961 57.9815 277.109 59.177 277.109 59.1967C277.099 59.2659 276.941 60.5108 276.655 62.9017C276.101 65.2729 276.467 69.1755 274.787 73.4536C272.762 82.2369 266.083 94.8141 252.963 104.368C240.158 114.317 218.995 117.973 199.354 110.385C189.829 106.077 180.908 99.2008 174.397 89.8642C168.232 80.3893 165.04 68.5235 165.366 56.9441ZM886.517 465.65C885.747 475.955 885.974 486.497 884.374 496.752C882.793 507.018 881.212 517.332 879.621 527.696L878.406 535.482L876.43 543.139L872.458 558.532C869.82 568.817 867.41 579.231 863.3 589.16C859.555 599.208 856.028 609.384 852.066 619.422C847.363 629.154 842.65 638.945 837.898 648.756C817.437 687.179 791.936 723.923 760.34 755.944C728.517 787.639 691.832 815.175 651.383 837.01C610.836 858.835 567.068 872.518 523.339 880.867C512.313 882.546 501.326 884.226 490.389 885.896C479.343 886.469 468.337 887.022 457.37 887.575C446.413 888.603 435.693 887.694 424.657 887.161L408.306 886.35L400.165 885.945L392.182 884.75C381.561 883.129 370.989 881.519 360.477 879.928C349.994 878.13 339.818 874.87 329.552 872.439L314.248 868.527L299.468 863.182C289.706 859.467 279.757 856.325 270.292 852.195C251.708 843.155 232.886 835.014 216.011 823.79C198.257 814.019 182.765 801.333 166.888 789.665C159.142 783.588 152.216 776.623 144.915 770.211L134.146 760.449C130.599 757.179 127.566 753.395 124.266 749.927C117.804 742.833 111.392 735.789 105.019 728.804C99.1013 721.443 93.6475 713.776 87.9961 706.366L79.6376 695.232C76.9009 691.507 74.7471 687.416 72.2869 683.544C67.505 675.709 62.7725 667.933 58.0696 660.227C53.5149 652.441 50.0668 644.132 46.0654 636.208C44.1289 632.207 42.2023 628.225 40.2856 624.264L37.4501 618.326L35.1875 612.161C32.1741 603.97 29.1904 595.859 26.2264 587.806C24.8333 583.756 23.0648 579.833 22.0076 575.723C20.9406 571.603 19.8834 567.513 18.8263 563.442C16.7218 555.301 14.6272 547.219 12.5524 539.236C10.5172 531.233 9.83545 523.043 8.42261 515.09C7.18761 507.087 5.96249 499.183 4.75713 491.348C4.34217 483.434 3.93709 475.609 3.52213 467.863C3.15657 460.147 2.61317 452.421 2.41557 444.942C2.62305 437.334 2.83053 429.825 3.03801 422.395C4.66821 392.884 9.06481 364.953 15.2695 339.058C21.5136 313.142 30.2376 289.539 39.3272 267.941C58.3858 225.042 80.9122 191.154 101.69 165.644C122.507 140.074 141.417 122.765 154.202 111.146C163.716 103.281 169.931 98.1437 172.747 95.812C179.771 104.744 189.108 111.017 198.771 114.88C220.131 122.419 242.262 116.995 254.988 106.107C268.118 95.4958 274.007 82.4147 275.627 73.4239C277.01 69.0372 276.467 65.263 276.862 62.882C277.01 60.4416 277.089 59.1572 277.089 59.1572V59.2066C277.089 59.1869 277.02 57.9716 276.872 55.6597C276.516 53.3576 276.961 49.7515 275.746 45.4141C275.262 42.8651 274.412 39.9505 273.207 36.8679C275.598 35.9985 284.262 32.8566 298.796 27.5906C303.113 26.0296 307.935 24.2808 313.26 22.3443C318.734 20.9512 324.721 19.4297 331.192 17.7798C337.664 16.1298 344.639 14.3613 352.098 12.4643C359.548 10.5575 367.768 9.89553 376.314 8.44317C384.91 7.31685 393.911 5.43965 403.494 4.73817C413.107 4.28369 423.185 3.79957 433.707 3.29569C444.229 2.31757 455.117 3.29569 466.608 3.86873C478.009 4.66901 490.003 4.48129 502.047 6.91177C550.568 12.8595 605.461 28.2526 659.218 58.4063C712.926 88.3526 765.349 133.01 807.102 191.806C812.813 198.801 817.051 206.883 821.892 214.639C826.497 222.543 831.713 230.19 835.922 238.479C843.619 255.384 853.103 271.834 858.854 290.161C873.377 325.68 880.599 364.746 885.451 404.631C886.132 424.856 888.523 444.892 886.517 465.65Z" fill="white"/>
<path d="M795.355 364.973C795.345 364.914 795.276 363.728 795.137 361.446C794.782 359.144 795.226 355.538 794.011 351.2C792.351 342.447 786.947 329.603 774.251 318.942C768.066 313.459 759.658 309.625 750.045 306.948C740.867 305.624 729.554 304.646 719.131 308.696C718.39 308.943 717.649 309.319 716.898 309.595C715.692 307.313 713.212 302.64 709.379 295.398C706.622 290.191 702.512 284.145 698.037 276.774C695.745 273.119 692.869 269.463 690.004 265.402C687.139 261.342 684.037 257.044 680.342 252.815C666.282 235.377 646.957 215.429 620.864 196.875C594.791 178.537 562.187 160.773 522.963 150.686C484.016 139.818 438.756 137.12 391.707 144.916C344.55 152.336 296.346 173.528 253.921 206.666C233.282 223.827 213.037 243.054 196.913 266.321L190.56 274.838L184.998 283.947C181.392 290.102 177.292 296.03 174.041 302.462C170.899 308.953 167.738 315.484 164.566 322.034C161.138 328.486 159.261 335.629 156.524 342.447C150.833 356.061 148.067 370.733 144.223 385.197C142.079 400.047 138.987 415.065 138.888 430.112C137.446 445.1 138.878 460.75 139.56 476.034C141.862 491.279 143.294 506.86 147.829 521.887C151.11 537.241 157.107 551.665 162.402 566.179C169.15 580.1 175.375 594.189 183.862 606.934C199.867 632.859 219.222 656.403 241.699 675.659C263.85 695.192 288.204 711.702 314.199 723.399C326.796 730.148 340.45 734.001 353.452 739C360.2 740.749 366.909 742.478 373.587 744.187L383.576 746.716L393.743 748.238C447.352 757.021 500.634 751.785 546.082 735.058C591.787 718.825 630.141 693.078 659.376 664.12C688.75 635.132 709.033 603.061 722.332 573.253C735.502 543.346 743.06 515.86 745.826 493.018C746.646 487.327 747.417 481.942 748.138 476.894C748.356 471.786 748.563 467.014 748.761 462.577C749.047 453.676 749.778 446.256 749.195 440.179C748.78 431.426 748.514 425.715 748.385 423.186C758.186 421.417 766.9 417.337 773.273 411.883C786.394 401.272 792.292 388.191 793.912 379.2C795.296 374.813 794.752 371.039 795.147 368.658C795.305 366.277 795.365 365.042 795.375 364.973H795.355ZM748.948 440.476C749.482 446.651 748.583 454.11 748.227 463.15C747.97 467.646 747.684 472.477 747.397 477.644C746.597 482.742 745.747 488.157 744.838 493.907C741.627 516.868 733.812 544.581 719.931 574.38C706.04 604.128 685.094 635.922 655.177 664.386C625.399 692.831 586.63 717.807 540.836 733.161C495.2 748.92 442.244 752.437 389.168 743.071C362.887 737.518 336.043 729.802 311.096 716.622L301.562 712.008L292.463 706.495C286.456 702.701 280.152 699.292 274.303 695.153C268.553 690.845 262.793 686.527 257.003 682.18C251.056 678.021 246.116 672.606 240.583 667.854C219.232 648.045 199.858 625.084 185.047 598.902C170.178 572.917 157.66 544.7 151.347 514.517C149.094 507.146 148.353 499.479 147.118 491.951C146.031 484.383 144.49 476.903 144.45 469.296C144.065 461.718 143.68 454.17 143.294 446.651C143.66 439.112 144.016 431.604 144.371 424.124C146.812 394.386 152.424 365.348 163.301 338.514L167.016 328.387L171.67 318.705C174.881 312.332 177.588 305.723 181.155 299.627C188.476 287.524 195.431 275.351 204.175 264.572C211.99 253.092 221.841 243.498 230.772 233.342C235.613 228.629 240.692 224.213 245.592 219.678L252.972 212.939L260.916 206.972C266.202 203.03 271.448 199.107 276.674 195.205C282.237 191.816 287.76 188.447 293.233 185.108L301.444 180.138L310.029 175.988C315.73 173.232 321.382 170.485 327.003 167.768C350.201 158.669 373.37 151.11 396.568 147.84C402.338 146.941 408.079 146.052 413.75 145.173C419.49 144.847 425.171 144.53 430.793 144.214C436.395 143.997 442.056 143.424 447.47 143.513C453.033 143.7 458.536 143.878 463.989 144.056C485.548 145.676 506.226 148.502 525.324 154.035C563.738 164.182 595.838 181.432 621.526 199.384C647.254 217.524 666.362 237.057 680.312 254.119C694.361 271.172 703.451 285.765 709.29 295.773C713.143 302.828 715.633 307.382 716.848 309.625C707.136 313.241 697.553 319.347 690.824 328.575C688.671 330.798 687.238 333.535 685.766 336.291C684.284 339.038 682.565 341.676 681.814 344.897C680.935 347.979 679.66 351.151 679.166 354.243C678.86 357.306 678.544 360.389 678.227 363.491C678.138 376.977 682.189 389.288 689.204 399.513C696.357 409.67 706.553 416.507 716.997 420.686C727.667 424.45 738.535 424.984 748.316 423.216C748.445 425.774 748.632 431.574 748.948 440.476ZM794.89 368.708C794.337 371.079 794.703 374.981 793.023 379.259C791.008 388.043 784.319 400.62 771.198 410.184C758.394 420.133 737.241 423.789 717.589 416.201C708.065 411.903 699.143 405.017 692.632 395.69C686.497 386.195 683.306 374.329 683.622 362.75C683.948 359.648 684.264 356.575 684.59 353.512C685.45 350.785 686.299 348.068 687.149 345.381C687.781 342.624 689.698 340.263 690.864 337.704C691.565 336.469 692.158 335.165 692.919 333.989L695.596 330.729C698.807 326.075 703.323 322.854 707.403 319.367C712.136 316.887 716.493 313.735 721.561 312.599C731.362 308.934 741.114 309.408 750.49 310.761C759.046 313.024 767.167 316.334 773.125 321.412C785.435 331.085 791.166 343.178 793.29 351.576C794.643 355.745 794.456 359.243 794.93 361.495C795.207 363.748 795.365 364.923 795.375 364.963C795.345 365.032 795.177 366.297 794.89 368.708Z" fill="white"/>
</svg>
